<svg xmlns="http://www.w3.org/2000/svg" width="37.76" height="37.835" viewBox="0 0 37.76 37.835"><g transform="translate(0.5 -2.708)"><path d="M14.6,3.24V7.31a14.477,14.477,0,0,0-3.8,1.37L8.06,5.94,2.71,11.3l2.55,2.55a14.386,14.386,0,0,0-1.71,3.98H0V25.4H3.64a14.047,14.047,0,0,0,1.75,3.86L2.71,31.94l5.35,5.35,2.97-2.97a14.561,14.561,0,0,0,3.57,1.26V40h3.3V32.31a10.863,10.863,0,0,1,0-21.68V3.24H14.6Z" fill="#00bde3" stroke="#00bde3" stroke-width="1"/><path d="M36.76,21.63A18.178,18.178,0,0,0,20.44,3.26v7.49a10.872,10.872,0,0,1,0,21.44v7.79A18.487,18.487,0,0,0,36.76,21.64Z" fill="#fff" stroke="#00bde3" stroke-width="1"/></g></svg>