<svg xmlns="http://www.w3.org/2000/svg" width="49.708" height="41.366" viewBox="0 0 49.708 41.366">
  <path id="folder-fill" d="M30.861,7.364H43.532A6.364,6.364,0,0,1,49.87,14.3L47.843,36.578a6.364,6.364,0,0,1-6.335,5.788H8.578a6.364,6.364,0,0,1-6.335-5.788L.215,14.3A6.332,6.332,0,0,1,1.3,10.136L1.179,7.364A6.364,6.364,0,0,1,7.543,1H19.228a6.363,6.363,0,0,1,4.5,1.864L26.362,5.5A6.364,6.364,0,0,0,30.861,7.364ZM4.381,7.746a6.338,6.338,0,0,1,2.176-.382h17.17l-2.25-2.25a3.182,3.182,0,0,0-2.25-.932H7.543A3.182,3.182,0,0,0,4.361,7.3l.019.442Z" transform="translate(-0.189 -1)" fill="#00bde3"/>
</svg>
