<svg xmlns="http://www.w3.org/2000/svg" width="50.058" height="50.058" viewBox="0 0 50.058 50.058">
  <path id="iconmonstr-time-7" d="M45.582,28.539l4.167.332A24.907,24.907,0,0,1,48.389,34l-3.754-1.888a20.673,20.673,0,0,0,.947-3.575ZM40.268,44.862l-2.947-3.01A20.744,20.744,0,0,1,34.077,43.8l1.4,3.961A24.883,24.883,0,0,0,40.268,44.862Zm2.557-8.988a21.048,21.048,0,0,1-2.4,3.187l2.928,2.989a25.107,25.107,0,0,0,3.21-4.292l-3.742-1.883ZM0,25.029A24.959,24.959,0,0,0,31.545,49.174l-1.387-3.95A20.847,20.847,0,1,1,25.037,4.172,20.686,20.686,0,0,1,37.466,8.32l-4.276,4.274,14.632,2.824L45,.791,40.441,5.344A24.995,24.995,0,0,0,0,25.029Zm49.585-4.92h-4.33a21.2,21.2,0,0,1,.6,4.27l4.2.336A25.33,25.33,0,0,0,49.585,20.109ZM30.8,31.286v-2.96h-5.41v-2.7l5.677-7.619h2.686V25.7h1.7v2.626h-1.7v2.96H30.8Zm0-5.588V22.163L28.168,25.7H30.8ZM14.6,31.286a5.658,5.658,0,0,1,2.574-5.045c2.355-1.744,4.151-2.43,4.151-4.044a1.581,1.581,0,0,0-1.677-1.731c-1.439,0-1.783,1.508-1.783,2.943H14.9c-.125-3.717,1.984-5.659,4.876-5.659A4.3,4.3,0,0,1,24.407,22a4.192,4.192,0,0,1-1.2,3.064c-1.3,1.366-3.237,2.054-4.511,3.508h5.786v2.718H14.6Z" fill="#00bde3"/>
</svg>
