<svg xmlns="http://www.w3.org/2000/svg" width="50.837" height="44.803" viewBox="0 0 50.837 44.803">
  <path id="megaphone-fill" d="M41.3,5.766a4.766,4.766,0,1,1,9.532,0v34.95a4.766,4.766,0,0,1-9.532,0Zm-3.177,2.3a65.335,65.335,0,0,1-22.241,5.262V33.145q1.731.1,3.457.27a56.12,56.12,0,0,1,18.784,4.957ZM12.709,32.98V13.5c-2.161.086-4.445.137-6.38.168A6.418,6.418,0,0,0,0,20.064v6.355A6.4,6.4,0,0,0,6.336,32.8q.788.01,1.576.025,2.4.048,4.8.152Zm4.416,3.435c.906.067,1.808.149,2.7.248l.8,5.37A3.177,3.177,0,0,1,17.507,45.8H15.766a3.177,3.177,0,0,1-2.91-1.9L8.68,36.02q2.689.067,5.376.2C15.1,36.278,16.122,36.341,17.126,36.414Z" transform="translate(0 -1)" fill="#00bde3"/>
</svg>
