<?xml version="1.0" encoding="UTF-8"?><svg id="Layer_2" xmlns="http://www.w3.org/2000/svg" viewBox="0 0 212.36 40"><defs><style>.cls-1{fill:#00bde3;}.cls-2{fill:#fff;}</style></defs><g id="Layer_1-2"><g><path class="cls-2" d="M59.48,29.77c0-1.24-.41-2.19-1.23-2.87s-2.29-1.39-4.41-2.15c-4.44-1.4-7.72-2.9-9.86-4.5s-3.21-3.91-3.21-6.93,1.27-5.32,3.82-7.13,5.78-2.72,9.7-2.72,7.07,1,9.56,3,3.68,4.57,3.6,7.73l-.05,.14h-7.91c0-1.4-.47-2.54-1.42-3.41-.95-.87-2.26-1.31-3.93-1.31s-2.92,.36-3.86,1.08-1.4,1.61-1.4,2.68,.47,1.85,1.41,2.47c.94,.62,2.7,1.39,5.29,2.33,3.98,1.19,6.99,2.65,9,4.39,2.02,1.74,3.03,4.12,3.03,7.16s-1.2,5.5-3.6,7.24-5.59,2.62-9.56,2.62-7.43-1-10.34-3c-2.91-2-4.32-4.88-4.24-8.64l.05-.14h7.93c0,2.02,.55,3.47,1.64,4.34s2.75,1.3,4.97,1.3c1.69,0,2.95-.34,3.77-1.01s1.24-1.56,1.24-2.65Z"/><path class="cls-2" d="M99.14,26.76l.05,.14c-.16,4.11-1.38,7.26-3.65,9.42s-5.57,3.25-9.89,3.25-7.87-1.33-10.58-4-4.07-6.13-4.07-10.39v-7.33c0-4.24,1.31-7.7,3.92-10.38,2.61-2.68,6.01-4.01,10.18-4.01,4.44,0,7.83,1.12,10.17,3.35,2.35,2.23,3.67,5.41,3.98,9.52l-.05,.14h-7.93c-.11-2.28-.62-3.98-1.53-5.09s-2.45-1.66-4.64-1.66c-1.85,0-3.3,.74-4.36,2.23s-1.59,3.43-1.59,5.85v7.38c0,2.43,.58,4.39,1.74,5.88s2.75,2.24,4.77,2.24,3.35-.52,4.17-1.57,1.28-2.71,1.4-4.99h7.93Z"/><path class="cls-2" d="M121.98,32.26h-11.06l-1.98,6.82h-8.2L112.08,3.98h8.75l11.35,35.1h-8.2l-2-6.82Zm-9.26-6.27h7.45l-3.66-12.56h-.14l-3.64,12.56Z"/><path class="cls-2" d="M143.31,32.81h15.11v6.27h-23.28V3.98h8.17v28.83Z"/><circle class="cls-2" cx="166.08" cy="35.13" r="3.95"/><g><path class="cls-2" d="M187.13,25.8c0-3.92,1.11-7.12,3.33-9.58s5.31-3.7,9.28-3.7,7.09,1.23,9.3,3.7,3.33,5.66,3.33,9.58v.51c0,3.94-1.11,7.13-3.33,9.59-2.22,2.46-5.3,3.69-9.26,3.69s-7.11-1.23-9.33-3.69-3.33-5.66-3.33-9.59v-.51Zm8.15,.51c0,2.19,.34,3.9,1.02,5.15s1.84,1.87,3.48,1.87,2.73-.63,3.42-1.88c.69-1.25,1.04-2.96,1.04-5.13v-.51c0-2.12-.34-3.82-1.04-5.1-.69-1.28-1.85-1.92-3.47-1.92s-2.75,.64-3.43,1.93-1.02,2.98-1.02,5.09v.51Z"/><g><rect class="cls-2" x="175.09" y="13" width="8.17" height="26.08"/><circle class="cls-2" cx="179.17" cy="4.07" r="4.07"/></g></g><path class="cls-1" d="M14.6,3.24V7.31c-1.35,.28-2.62,.75-3.8,1.37l-2.74-2.74L2.71,11.3l2.55,2.55c-.76,1.22-1.34,2.56-1.71,3.98H0v7.57H3.64c.39,1.38,.98,2.68,1.75,3.86l-2.68,2.68,5.35,5.35,2.97-2.97c1.12,.56,2.31,1,3.57,1.26v4.42h3.3v-7.69c-5.67-.38-10.15-5.08-10.15-10.84s4.48-10.47,10.15-10.84V3.24h-3.3Z"/><path class="cls-2" d="M36.76,21.63c0-9.6-6.98-17.45-16.32-18.37v7.49c5.14,.87,9.06,5.33,9.06,10.72s-3.92,9.85-9.06,10.72v7.79c9.18-1.09,16.32-8.86,16.32-18.34Z"/></g></g></svg>